<?xml version="1.0" encoding="iso-8859-1"?>
<!-- Generator: Adobe Illustrator 19.0.0, SVG Export Plug-In . SVG Version: 6.00 Build 0)  -->
<svg version="1.1" id="Layer_1" xmlns="http://www.w3.org/2000/svg" xmlns:xlink="http://www.w3.org/1999/xlink" x="0px" y="0px"
	 viewBox="0 0 512 512" style="enable-background:new 0 0 512 512;" xml:space="preserve">
<circle style="fill:#E1E5EA;" cx="256" cy="256" r="256"/>
<path style="fill:#FFFFFF;" d="M355.872,456h-200c-6.6,0-12-5.4-12-12V68c0-6.6,5.4-12,12-12h200c6.6,0,12,5.4,12,12v376
	C367.872,450.6,362.472,456,355.872,456z"/>
<rect x="155.872" y="88" width="200" height="320"/>
<g>
	<path style="fill:#999999;" d="M279.664,76h-48c-2.2,0-4-1.8-4-4l0,0c0-2.2,1.8-4,4-4h48c2.2,0,4,1.8,4,4l0,0
		C283.664,74.2,281.864,76,279.664,76z"/>
	<path style="fill:#999999;" d="M279.872,432h-48c-2.2,0-4-1.8-4-4l0,0c0-2.2,1.8-4,4-4h48c2.2,0,4,1.8,4,4l0,0
		C283.872,430.2,282.072,432,279.872,432z"/>
</g>
<rect x="180" y="276.296" style="fill:#8AD5DD;" width="152" height="8"/>
<g>
	<rect x="180" y="308.296" style="fill:#E1E5EA;" width="152" height="8"/>
	<rect x="180" y="324.296" style="fill:#E1E5EA;" width="152" height="8"/>
	<rect x="180" y="340.296" style="fill:#E1E5EA;" width="152" height="8"/>
</g>
<rect x="180" y="147.704" style="fill:#8AD5DD;" width="152" height="8"/>
<g>
	<rect x="180" y="179.704" style="fill:#E1E5EA;" width="152" height="8"/>
	<rect x="180" y="195.704" style="fill:#E1E5EA;" width="152" height="8"/>
	<rect x="180" y="211.704" style="fill:#E1E5EA;" width="152" height="8"/>
</g>
<g>
</g>
<g>
</g>
<g>
</g>
<g>
</g>
<g>
</g>
<g>
</g>
<g>
</g>
<g>
</g>
<g>
</g>
<g>
</g>
<g>
</g>
<g>
</g>
<g>
</g>
<g>
</g>
<g>
</g>
</svg>
